<svg xmlns="http://www.w3.org/2000/svg" width="2159.768" height="816.521" viewBox="0 0 2159.768 816.521">
  <g id="bg-section-06_1_" data-name="bg-section-06 (1)" transform="translate(324.004 -871.476)">
    <path id="패스_186" data-name="패스 186" d="M0,0H1920V369.428H0Z" transform="translate(-84.236 1318.568)" fill="#50e3c2"/>
    <g id="그룹_105" data-name="그룹 105" transform="translate(-272.004 -140.004)">
      <g id="그룹_104" data-name="그룹 104" transform="translate(845.368 616.45)">
        <path id="패스_187" data-name="패스 187" d="M244.118,540c134.822,0,244.118,109.3,244.118,244.118s-109.3,244.118-244.118,244.118S0,918.94,0,784.118,109.3,540,244.118,540Z" transform="translate(252 -43.222)" fill="#00d293" opacity="0.3"/>
        <path id="패스_188" data-name="패스 188" d="M0,58.352c0-.494,0-.983,0-1.477L.062,46.458a46.759,46.759,0,0,1,93.517.257c0,.09,0,.178,0,.267L93.52,57.4c0,.313,0,.628,0,.941A160.249,160.249,0,0,0,143.8,175.526a160.549,160.549,0,0,0,120.537,44.419,46.72,46.72,0,1,1,5.081,93.3A253.93,253.93,0,0,1,165.2,297.212,255.1,255.1,0,0,1,0,58.352" transform="translate(863.74 822.497) rotate(-71)" fill="#00d293" fill-rule="evenodd" opacity="0.3"/>
      </g>
      <path id="패스_189" data-name="패스 189" d="M59.937,361.917A213.818,213.818,0,0,1,0,212.951C0,95.343,94.023,0,210,0S420,95.343,420,212.951a213.817,213.817,0,0,1-59.937,148.966A187.3,187.3,0,0,1,393.82,469.6C393.82,572.545,311.513,656,210,656S26.181,572.544,26.181,469.6A187.359,187.359,0,0,1,59.937,361.917" transform="translate(516.115 1011.48) rotate(60)" fill="#00d293" opacity="0.3"/>
    </g>
  </g>
</svg>
