<svg xmlns="http://www.w3.org/2000/svg" width="46.96" height="46.907" viewBox="0 0 46.96 46.907">
  <g id="_08_Sales" data-name="08 Sales" transform="translate(0 0)">
    <path id="패스_47" data-name="패스 47" d="M19.329,37.049C41.157,15.222,39.9,16,41.58,16H60.588a2.887,2.887,0,0,1,2.887,2.887c0,20.639.313,19.893-.847,21.053L42.422,60.142a2.887,2.887,0,0,1-4.085,0L19.329,41.129A2.887,2.887,0,0,1,19.329,37.049Zm35.486-9.506a2.887,2.887,0,1,0-2.887-2.887A2.887,2.887,0,0,0,54.815,27.543Z" transform="translate(-17.525 -15.034)" fill="#ff4848"/>
    <path id="패스_48" data-name="패스 48" d="M61.223,62.141a1.3,1.3,0,1,0,2.569-.414l-2.43-15.708a1.3,1.3,0,1,0-2.564.433L61.2,62.136Z" transform="translate(-38.423 -30.028)" fill="#fff"/>
    <path id="패스_49" data-name="패스 49" d="M41.262,63.279l.029.029a3.856,3.856,0,1,0-.029-.029Zm1.924-2c-1.52-1.52.077-2.959,1.549-1.487,1.573,1.549-.019,3-1.535,1.487Z" transform="translate(-28.647 -36.025)" fill="#fff"/>
    <path id="패스_50" data-name="패스 50" d="M72.547,61.392l.029.029a3.855,3.855,0,1,0-.029-.029Zm1.924-2c-1.511-1.511.067-2.968,1.578-1.443S76.006,60.921,74.472,59.4Z" transform="translate(-44.879 -35.077)" fill="#fff"/>
    <path id="패스_51" data-name="패스 51" d="M39.7,34l5.234-5.23a.963.963,0,0,0-1.362-1.361L38.34,32.64A.962.962,0,0,0,39.7,34Z" transform="translate(-27.708 -20.81)" fill="#fff"/>
    <path id="패스_52" data-name="패스 52" d="M86.2,28.612A3.849,3.849,0,1,0,89.846,26a.962.962,0,0,0,0,1.924,1.924,1.924,0,1,1-1.823,1.309.963.963,0,0,0-1.823-.621Z" transform="translate(-52.556 -20.227)" fill="#fff"/>
    <path id="패스_53" data-name="패스 53" d="M78.5,14H59.492c-2.006,0-2.569.962-6.206,4.614a.963.963,0,1,0,1.361,1.361c3.729-3.733,3.81-4.051,4.845-4.051H78.5a1.924,1.924,0,0,1,1.924,1.924V36.857c0,1.1.823-.024-16.564,17.363a.963.963,0,1,0,1.362,1.362l16-16c1.525-1.525,1.126-1.27,1.126-21.731A3.849,3.849,0,0,0,78.5,14Z" transform="translate(-35.437 -14)" fill="#fff"/>
    <path id="패스_54" data-name="패스 54" d="M43.06,70.619l-2.353,2.353a1.972,1.972,0,0,1-2.723,0L18.977,53.963a1.924,1.924,0,0,1,0-2.723l7.563-7.563a.963.963,0,0,0-1.362-1.361l-7.563,7.563a3.849,3.849,0,0,0,0,5.441L36.623,74.328a3.849,3.849,0,0,0,5.441,0l2.353-2.353a.962.962,0,0,0-1.357-1.357Z" transform="translate(-16.489 -28.547)" fill="#fff"/>
  </g>
</svg>
