<svg xmlns="http://www.w3.org/2000/svg" width="57.56" height="51.329" viewBox="0 0 57.56 51.329">
  <g id="web-page-home" transform="translate(0)">
    <g id="그룹_8" data-name="그룹 8" transform="translate(0 0)">
      <path id="패스_14" data-name="패스 14" d="M1.988,56.92H6.677V75.673a2.015,2.015,0,0,0,2.009,2.009h13.73a2.015,2.015,0,0,0,2.009-2.009V61.943H32.8v13.73a2.015,2.015,0,0,0,2.009,2.009H47.868a2.015,2.015,0,0,0,2.009-2.009V56.92H55.57A2,2,0,0,0,56.977,53.5L30.789,26.948a2,2,0,0,0-2.813-.033L.615,53.471a2.011,2.011,0,0,0-.469,2.21A1.959,1.959,0,0,0,1.988,56.92ZM29.315,31.2,50.748,52.9h-2.88a2.015,2.015,0,0,0-2.009,2.009V73.664H36.817V59.934a2.015,2.015,0,0,0-2.009-2.009H22.417a2.015,2.015,0,0,0-2.009,2.009v13.73H10.7V54.911A2.015,2.015,0,0,0,8.686,52.9H6.945Z" transform="translate(0 -26.353)" fill="#2680eb"/>
    </g>
  </g>
</svg>
