<svg xmlns="http://www.w3.org/2000/svg" width="38.956" height="47.896" viewBox="0 0 38.956 47.896">
  <g id="text-line-form" transform="translate(0 0)">
    <g id="그룹_19" data-name="그룹 19" transform="translate(0 0)">
      <path id="패스_29" data-name="패스 29" d="M78.623,1.916A1.922,1.922,0,0,0,76.707,0H41.583a1.922,1.922,0,0,0-1.916,1.916V45.981A1.922,1.922,0,0,0,41.583,47.9H76.708a1.922,1.922,0,0,0,1.916-1.916V1.916ZM43.5,3.832H74.792V44.065H43.5Z" transform="translate(-39.667)" fill="#707070"/>
      <path id="패스_30" data-name="패스 30" d="M138.159,99.167H120.916a1.916,1.916,0,1,0,0,3.832h17.243a1.916,1.916,0,1,0,0-3.832Z" transform="translate(-110.059 -87.991)" fill="#707070"/>
      <path id="패스_31" data-name="패스 31" d="M138.159,189.833H120.916a1.916,1.916,0,1,0,0,3.832h17.243a1.916,1.916,0,1,0,0-3.832Z" transform="translate(-110.059 -168.439)" fill="#707070"/>
      <path id="패스_32" data-name="패스 32" d="M138.159,286.167H120.916a1.916,1.916,0,1,0,0,3.832h17.243a1.916,1.916,0,1,0,0-3.832Z" transform="translate(-110.059 -253.917)" fill="#707070"/>
    </g>
  </g>
</svg>
