<svg xmlns="http://www.w3.org/2000/svg" width="57.922" height="57.925" viewBox="0 0 57.922 57.925">
  <g id="flying-airplane" transform="translate(0 0)">
    <g id="그룹_67" data-name="그룹 67" transform="translate(0 0)">
      <path id="패스_126" data-name="패스 126" d="M48.574,4.4,24.332,12.361,19.662,7.52l-.034-.034C16.194,4.052,11.181,0,6.717,0a6.48,6.48,0,0,0-4.7,1.923C.193,3.743-1.317,7.039,1.876,12.5a36.082,36.082,0,0,0,5.7,7.039l.034.034,4.807,4.635L4.451,48.517a2.069,2.069,0,0,0,.79,2.335L13,56.208a2.045,2.045,0,0,0,2.85-.515L27.525,38.834l2.987,2.884,1.27,14.318a2.048,2.048,0,0,0,1.339,1.751,2.673,2.673,0,0,0,.721.137,1.922,1.922,0,0,0,1.442-.618L57.329,35.263a2.072,2.072,0,0,0-1.3-3.537l-13.906-.893-3.228-3.365,16.825-11.64a2.045,2.045,0,0,0,.515-2.85l-5.357-7.76A2.02,2.02,0,0,0,48.574,4.4ZM34.564,25.477a2.17,2.17,0,0,0-.893,1.476,2.017,2.017,0,0,0,.584,1.648l5.46,5.665a1.961,1.961,0,0,0,1.339.618l10.164.652L35.526,51.229,34.6,40.551a2.119,2.119,0,0,0-.618-1.3L28.693,34.13a2.221,2.221,0,0,0-1.648-.584,1.935,1.935,0,0,0-1.476.927L13.653,51.641l-4.807-3.3,7.9-24.07a2.113,2.113,0,0,0-.515-2.129l-5.7-5.528a34.411,34.411,0,0,1-5.082-6.18c-2.232-3.846-.927-5.15-.515-5.562a2.354,2.354,0,0,1,1.785-.721c2.335,0,6.078,2.335,9.992,6.283l5.563,5.768a1.977,1.977,0,0,0,2.129.515l24-7.863,3.3,4.807Z" transform="translate(-0.016)" fill="#707070"/>
    </g>
  </g>
</svg>
