<svg xmlns="http://www.w3.org/2000/svg" width="55.531" height="51.46" viewBox="0 0 55.531 51.46">
  <g id="chat-speech-balloon" transform="translate(-0.001 0)">
    <g id="그룹_110" data-name="그룹 110" transform="translate(0.001 0)">
      <path id="패스_195" data-name="패스 195" d="M27.766,17.425C12.443,17.425,0,27.187,0,39.167c0,6.188,3.309,11.98,9.1,16.116L7.115,66.568a1.941,1.941,0,0,0,.794,1.953,1.855,1.855,0,0,0,1.158.364,1.755,1.755,0,0,0,.927-.232l14.661-7.876c1.059.1,2.085.132,3.111.132,15.322,0,27.766-9.762,27.766-21.742S43.088,17.425,27.766,17.425Zm0,39.48c-1.059,0-2.184-.066-3.309-.166a2.035,2.035,0,0,0-1.158.232L11.715,63.193l1.489-8.5a1.967,1.967,0,0,0-.894-2.019c-5.328-3.409-8.373-8.306-8.373-13.5,0-9.8,10.689-17.771,23.794-17.771s23.794,7.975,23.794,17.771S40.871,56.905,27.766,56.905Z" transform="translate(0 -17.425)" fill="#707070"/>
    </g>
  </g>
</svg>
