<svg xmlns="http://www.w3.org/2000/svg" width="52.486" height="49.739" viewBox="0 0 52.486 49.739">
  <g id="audio-headphones" transform="translate(0.001 0)">
    <g id="그룹_103" data-name="그룹 103" transform="translate(-0.001 0)">
      <path id="패스_179" data-name="패스 179" d="M45.7,31.715h-3.74a4.112,4.112,0,0,0-4.137,4V57.428a4.14,4.14,0,0,0,4.137,4.037h3.773c.1,0,.232-.033.331-.033,1.059-.2,6.42-1.82,6.42-15.421a29.477,29.477,0,0,0-1.059-8.571,1.939,1.939,0,0,0,.066-.43,25.25,25.25,0,0,0-50.5,0,1.932,1.932,0,0,0,.2.86A31.075,31.075,0,0,0,0,47.169C0,52.63.894,56.6,2.614,59.017A5.279,5.279,0,0,0,6.751,61.5h3.806a4.14,4.14,0,0,0,4.137-4.037V35.752a4.169,4.169,0,0,0-4.17-4.037H6.751a1.127,1.127,0,0,0-.331.033,3.832,3.832,0,0,0-.86.265,21.273,21.273,0,0,1,41.334-.1,3.932,3.932,0,0,0-1.158-.2ZM7.115,35.686h3.409a1.438,1.438,0,0,1,.166.033V57.428c0,.033-.132.066-.166.066H6.784c-.761-.331-2.813-2.316-2.813-10.358C3.971,38.036,6.519,36.017,7.115,35.686Zm41.4,10.358c0,9.167-2.548,11.152-3.144,11.483H41.963a.851.851,0,0,1-.166-.066V35.752c0-.033.132-.033.166-.033h3.773C46.464,35.686,48.515,38,48.515,46.044Z" transform="translate(0 -11.76)" fill="#2680eb"/>
    </g>
  </g>
</svg>
