<svg xmlns="http://www.w3.org/2000/svg" width="45.893" height="42.383" viewBox="0 0 45.893 42.383">
  <g id="그룹_58" data-name="그룹 58" transform="translate(0 0)">
    <path id="패스_110" data-name="패스 110" d="M22.1,59.007a1.877,1.877,0,0,0,.97.294,1.7,1.7,0,0,0,.97-.294c.794-.529,19.428-12.815,21.544-25.306,1.087-6.466-.911-10.463-2.763-12.668a11.452,11.452,0,0,0-8.612-4.115,8.351,8.351,0,0,0-3,.529,21.877,21.877,0,0,0-9.141,6.672c-1.617-2-4.379-4.879-7.73-6.025a10.216,10.216,0,0,0-3.321-.529A10.534,10.534,0,0,0,3.2,20.974c-1.734,1.91-3.7,5.555-3.086,11.9C1.349,45.369,21.247,58.448,22.1,59.007ZM5.817,23.325a6.971,6.971,0,0,1,5.2-2.263,6.616,6.616,0,0,1,2.175.353C17.279,22.8,20.542,28,20.6,28.028a1.71,1.71,0,0,0,1.528.823,1.78,1.78,0,0,0,1.5-.882,18.632,18.632,0,0,1,8.847-7.26,5.358,5.358,0,0,1,1.734-.294,7.95,7.95,0,0,1,5.908,2.88c2,2.351,2.675,5.761,1.969,9.817C41.322,37.58,37.677,42.93,31.534,48.6a83.945,83.945,0,0,1-8.465,6.789A88.2,88.2,0,0,1,14.1,48.25C7.7,42.371,4.082,36.934,3.642,32.525,3.26,28.5,3.994,25.324,5.817,23.325Z" transform="translate(0.001 -16.918)" fill="#848484"/>
  </g>
</svg>
