<svg id="그룹_687" data-name="그룹 687" xmlns="http://www.w3.org/2000/svg" width="28.465" height="26.288" viewBox="0 0 28.465 26.288">
  <path id="패스_110" data-name="패스 110" d="M13.707,43.023a1.164,1.164,0,0,0,.6.182,1.057,1.057,0,0,0,.6-.182c.492-.328,12.05-7.948,13.363-15.7.674-4.011-.565-6.49-1.714-7.857a7.1,7.1,0,0,0-5.341-2.552,5.18,5.18,0,0,0-1.859.328,13.569,13.569,0,0,0-5.67,4.138,11.58,11.58,0,0,0-4.794-3.737,6.337,6.337,0,0,0-2.06-.328,6.534,6.534,0,0,0-4.849,2.115C.909,20.619-.312,22.879.071,26.817.836,34.565,13.178,42.677,13.707,43.023ZM3.607,20.892a4.324,4.324,0,0,1,3.227-1.4,4.1,4.1,0,0,1,1.349.219c2.534.857,4.557,4.084,4.594,4.1a1.06,1.06,0,0,0,.948.51,1.1,1.1,0,0,0,.93-.547,11.556,11.556,0,0,1,5.487-4.5,3.323,3.323,0,0,1,1.076-.182,4.931,4.931,0,0,1,3.664,1.787c1.24,1.458,1.659,3.573,1.221,6.089-.474,2.771-2.734,6.089-6.545,9.607a52.066,52.066,0,0,1-5.25,4.211,54.709,54.709,0,0,1-5.56-4.43c-3.974-3.646-6.216-7.019-6.49-9.753C2.021,24.1,2.477,22.132,3.607,20.892Z" transform="translate(0.001 -16.918)" fill="#40d1ba"/>
</svg>
