<svg xmlns="http://www.w3.org/2000/svg" width="32" height="30" viewBox="0 0 32 30">
  <path id="note" d="M31.414,7.585l-6-6A2,2,0,0,0,24,1H3A3,3,0,0,0,0,4V28a3,3,0,0,0,3,3H29a3,3,0,0,0,3-3V9A2,2,0,0,0,31.414,7.585ZM30,28a1,1,0,0,1-1,1H3a1,1,0,0,1-1-1V4A1,1,0,0,1,3,3H23V7h0a3,3,0,0,0,3,3h4ZM27,9H26a2,2,0,0,1-2-2h0V3l6,6ZM15.5,8a.5.5,0,0,1,0-1h5a.5.5,0,0,1,0,1Zm0,3a.5.5,0,0,1,0-1h5a.5.5,0,0,1,0,1ZM15,13.5a.5.5,0,0,1,.5-.5h12a.5.5,0,0,1,0,1h-12A.5.5,0,0,1,15,13.5ZM27.5,19a.5.5,0,0,1,0,1H4.5a.5.5,0,0,1,0-1Zm0,3a.5.5,0,0,1,0,1H4.5a.5.5,0,0,1,0-1Zm0,3a.5.5,0,0,1,0,1H4.5a.5.5,0,0,1,0-1Zm0-9a.5.5,0,0,1,0,1H4.5a.5.5,0,0,1,0-1ZM5,14h7a1,1,0,0,0,1-1V7a1,1,0,0,0-1-1H5A1,1,0,0,0,4,7v6A1,1,0,0,0,5,14ZM6,8h5v4H6Z" transform="translate(0 -1)" fill="#50e3c2"/>
</svg>
