<svg id="office-monthly-calendar" xmlns="http://www.w3.org/2000/svg" width="27.832" height="28.155" viewBox="0 0 27.832 28.155">
  <g id="그룹_51" data-name="그룹 51" transform="translate(0)">
    <path id="패스_91" data-name="패스 91" d="M29.694,45.333H26.781a.971.971,0,1,0,0,1.942h1.942V68.958H4.775V47.275H7.364a.971.971,0,0,0,0-1.942H3.8a.974.974,0,0,0-.971.971V69.928A.974.974,0,0,0,3.8,70.9h25.89a.974.974,0,0,0,.971-.971V46.3A.974.974,0,0,0,29.694,45.333Z" transform="translate(-2.833 -42.744)" fill="#40d1ba"/>
    <path id="패스_92" data-name="패스 92" d="M207.722,45.333h-2.751a.971.971,0,0,0,0,1.942h2.751a.971.971,0,1,0,0-1.942Z" transform="translate(-192.511 -42.744)" fill="#40d1ba"/>
    <path id="패스_93" data-name="패스 93" d="M91.069,351.333H88.8a.974.974,0,0,0-.971.971v1.618a.974.974,0,0,0,.971.971h2.265a.974.974,0,0,0,.971-.971V352.3A.974.974,0,0,0,91.069,351.333Z" transform="translate(-82.979 -331.268)" fill="#40d1ba"/>
    <path id="패스_94" data-name="패스 94" d="M210.231,351.333H207.8a.974.974,0,0,0-.971.971v1.618a.974.974,0,0,0,.971.971h2.427a.974.974,0,0,0,.971-.971V352.3A.974.974,0,0,0,210.231,351.333Z" transform="translate(-195.182 -331.268)" fill="#40d1ba"/>
    <path id="패스_95" data-name="패스 95" d="M92.04,258.8a.974.974,0,0,0-.971-.971H88.8a.974.974,0,0,0-.971.971v1.618a.974.974,0,0,0,.971.971h2.265a.974.974,0,0,0,.971-.971Z" transform="translate(-82.979 -243.108)" fill="#40d1ba"/>
    <path id="패스_96" data-name="패스 96" d="M211.2,258.8a.974.974,0,0,0-.971-.971H207.8a.974.974,0,0,0-.971.971v1.618a.974.974,0,0,0,.971.971h2.427a.974.974,0,0,0,.971-.971Z" transform="translate(-195.182 -243.108)" fill="#40d1ba"/>
    <path id="패스_97" data-name="패스 97" d="M331.9,257.833h-2.265a.974.974,0,0,0-.971.971v1.618a.974.974,0,0,0,.971.971H331.9a.974.974,0,0,0,.971-.971V258.8A.974.974,0,0,0,331.9,257.833Z" transform="translate(-310.058 -243.108)" fill="#40d1ba"/>
    <path id="패스_98" data-name="패스 98" d="M87.833,162.471v1.618a.974.974,0,0,0,.971.971h2.265a.974.974,0,0,0,.971-.971v-1.618a.974.974,0,0,0-.971-.971H88.8A.974.974,0,0,0,87.833,162.471Z" transform="translate(-82.979 -152.277)" fill="#40d1ba"/>
    <path id="패스_99" data-name="패스 99" d="M211.2,162.471a.974.974,0,0,0-.971-.971H207.8a.974.974,0,0,0-.971.971v1.618a.974.974,0,0,0,.971.971h2.427a.974.974,0,0,0,.971-.971Z" transform="translate(-195.182 -152.277)" fill="#40d1ba"/>
    <path id="패스_100" data-name="패스 100" d="M332.873,162.471a.974.974,0,0,0-.971-.971h-2.265a.974.974,0,0,0-.971.971v1.618a.974.974,0,0,0,.971.971H331.9a.974.974,0,0,0,.971-.971Z" transform="translate(-310.058 -152.277)" fill="#40d1ba"/>
    <path id="패스_101" data-name="패스 101" d="M123.775,6.472a.974.974,0,0,0,.971-.971V.971A.974.974,0,0,0,123.775,0H122.8a.974.974,0,0,0-.971.971V5.5a.974.974,0,0,0,.971.971Z" transform="translate(-115.037 0)" fill="#40d1ba"/>
    <path id="패스_102" data-name="패스 102" d="M319.275,0H318.3a.974.974,0,0,0-.971.971V5.5a.974.974,0,0,0,.971.971h.971a.974.974,0,0,0,.971-.971V.971A.974.974,0,0,0,319.275,0Z" transform="translate(-299.372)" fill="#40d1ba"/>
  </g>
</svg>
