<svg id="그룹_688" data-name="그룹 688" xmlns="http://www.w3.org/2000/svg" width="19.986" height="28.116" viewBox="0 0 19.986 28.116">
  <path id="패스_117" data-name="패스 117" d="M170.028,114.467a4.419,4.419,0,1,0,4.419,4.419A4.42,4.42,0,0,0,170.028,114.467Zm0,6.86a2.441,2.441,0,1,1,2.441-2.441A2.446,2.446,0,0,1,170.028,121.327Z" transform="translate(-160.035 -107.805)" fill="#bebebe"/>
  <path id="패스_118" data-name="패스 118" d="M87.173,3.3A9.9,9.9,0,0,0,79.538,0c-6.365,0-9.7,5.178-9.7,10.29,0,6.695,9.152,17.034,9.548,17.48a.957.957,0,0,0,.726.346h.016a1.028,1.028,0,0,0,.726-.33,49.205,49.205,0,0,0,4.452-5.722c3-4.485,4.518-8.459,4.518-11.79A10.649,10.649,0,0,0,87.173,3.3ZM80.148,25.576C78,23,71.837,15.2,71.837,10.273c0-3.991,2.424-8.295,7.717-8.295a8.119,8.119,0,0,1,8.295,8.295C87.849,16.078,82.193,23.185,80.148,25.576Z" transform="translate(-69.842)" fill="#bebebe"/>
</svg>
