<svg id="office-monthly-calendar" xmlns="http://www.w3.org/2000/svg" width="41.88" height="42.367" viewBox="0 0 41.88 42.367">
  <g id="그룹_51" data-name="그룹 51">
    <path id="패스_91" data-name="패스 91" d="M43.252,45.333H38.869a1.461,1.461,0,1,0,0,2.922h2.922V80.882H5.755V48.255h3.9a1.461,1.461,0,1,0,0-2.922H4.294a1.465,1.465,0,0,0-1.461,1.461V82.343A1.465,1.465,0,0,0,4.294,83.8H43.252a1.465,1.465,0,0,0,1.461-1.461V46.794A1.465,1.465,0,0,0,43.252,45.333Z" transform="translate(-2.833 -41.437)" fill="#bebebe"/>
    <path id="패스_92" data-name="패스 92" d="M209.6,45.333h-4.139a1.461,1.461,0,0,0,0,2.922H209.6a1.461,1.461,0,0,0,0-2.922Z" transform="translate(-186.712 -41.437)" fill="#bebebe"/>
    <path id="패스_93" data-name="패스 93" d="M92.7,351.333H89.294a1.465,1.465,0,0,0-1.461,1.461v2.435a1.465,1.465,0,0,0,1.461,1.461H92.7a1.465,1.465,0,0,0,1.461-1.461v-2.435A1.465,1.465,0,0,0,92.7,351.333Z" transform="translate(-80.528 -321.141)" fill="#bebebe"/>
    <path id="패스_94" data-name="패스 94" d="M211.946,351.333h-3.652a1.465,1.465,0,0,0-1.461,1.461v2.435a1.465,1.465,0,0,0,1.461,1.461h3.652a1.465,1.465,0,0,0,1.461-1.461v-2.435A1.465,1.465,0,0,0,211.946,351.333Z" transform="translate(-189.302 -321.141)" fill="#bebebe"/>
    <path id="패스_95" data-name="패스 95" d="M94.164,259.294a1.465,1.465,0,0,0-1.461-1.461H89.294a1.465,1.465,0,0,0-1.461,1.461v2.435a1.465,1.465,0,0,0,1.461,1.461H92.7a1.465,1.465,0,0,0,1.461-1.461Z" transform="translate(-80.528 -235.676)" fill="#bebebe"/>
    <path id="패스_96" data-name="패스 96" d="M213.407,259.294a1.465,1.465,0,0,0-1.461-1.461h-3.652a1.465,1.465,0,0,0-1.461,1.461v2.435a1.465,1.465,0,0,0,1.461,1.461h3.652a1.465,1.465,0,0,0,1.461-1.461Z" transform="translate(-189.302 -235.676)" fill="#bebebe"/>
    <path id="패스_97" data-name="패스 97" d="M333.536,257.833h-3.409a1.465,1.465,0,0,0-1.461,1.461v2.435a1.465,1.465,0,0,0,1.461,1.461h3.409A1.465,1.465,0,0,0,335,261.729v-2.435A1.465,1.465,0,0,0,333.536,257.833Z" transform="translate(-300.665 -235.676)" fill="#bebebe"/>
    <path id="패스_98" data-name="패스 98" d="M87.833,162.961V165.4a1.465,1.465,0,0,0,1.461,1.461H92.7a1.465,1.465,0,0,0,1.461-1.461v-2.435A1.465,1.465,0,0,0,92.7,161.5H89.294A1.465,1.465,0,0,0,87.833,162.961Z" transform="translate(-80.528 -147.621)" fill="#bebebe"/>
    <path id="패스_99" data-name="패스 99" d="M213.407,162.961a1.465,1.465,0,0,0-1.461-1.461h-3.652a1.465,1.465,0,0,0-1.461,1.461V165.4a1.465,1.465,0,0,0,1.461,1.461h3.652a1.465,1.465,0,0,0,1.461-1.461Z" transform="translate(-189.302 -147.621)" fill="#bebebe"/>
    <path id="패스_100" data-name="패스 100" d="M335,162.961a1.465,1.465,0,0,0-1.461-1.461h-3.409a1.465,1.465,0,0,0-1.461,1.461V165.4a1.465,1.465,0,0,0,1.461,1.461h3.409A1.465,1.465,0,0,0,335,165.4Z" transform="translate(-300.665 -147.621)" fill="#bebebe"/>
    <path id="패스_101" data-name="패스 101" d="M124.755,9.739a1.465,1.465,0,0,0,1.461-1.461V1.461A1.465,1.465,0,0,0,124.755,0h-1.461a1.465,1.465,0,0,0-1.461,1.461V8.279a1.465,1.465,0,0,0,1.461,1.461Z" transform="translate(-111.607 0)" fill="#bebebe"/>
    <path id="패스_102" data-name="패스 102" d="M320.255,0h-1.461a1.465,1.465,0,0,0-1.461,1.461V8.279a1.465,1.465,0,0,0,1.461,1.461h1.461a1.465,1.465,0,0,0,1.461-1.461V1.461A1.465,1.465,0,0,0,320.255,0Z" transform="translate(-290.306)" fill="#bebebe"/>
  </g>
</svg>
