<svg xmlns="http://www.w3.org/2000/svg" width="51.5" height="49.156" viewBox="0 0 51.5 49.156">
  <path id="패스_22" data-name="패스 22" d="M51.4,29.835a1.757,1.757,0,0,0-1.544-1.218L33.672,27.251l-6.3-14.969a1.782,1.782,0,0,0-1.634-1.1,1.737,1.737,0,0,0-1.634,1.1l-6.3,14.969L1.624,28.618A1.757,1.757,0,0,0,.08,29.835a1.83,1.83,0,0,0,.535,1.9l12.267,10.6L9.2,58.141a1.777,1.777,0,0,0,2.643,1.931l13.9-8.405,13.9,8.405a1.741,1.741,0,0,0,.921.267,1.871,1.871,0,0,0,1.04-.327,1.727,1.727,0,0,0,.683-1.842L38.6,42.369l12.267-10.6A1.784,1.784,0,0,0,51.4,29.835Z" transform="translate(-0.001 -11.183)" fill="#458cd3"/>
</svg>
