<svg xmlns="http://www.w3.org/2000/svg" width="31.063" height="28.622" viewBox="0 0 31.063 28.622">
  <path id="교차_127" data-name="교차 127" d="M14.96,28.424C14.383,28.046.914,19.214.078,10.778-.339,6.491.994,4.03,2.167,2.739A7.14,7.14,0,0,1,7.46.437,6.93,6.93,0,0,1,9.707.794,12.637,12.637,0,0,1,14.94,4.863,14.811,14.811,0,0,1,21.127.357,5.663,5.663,0,0,1,23.155,0a7.76,7.76,0,0,1,5.829,2.779c1.253,1.489,2.606,4.188,1.87,8.555-1.433,8.436-14.045,16.732-14.582,17.09a1.16,1.16,0,0,1-.657.2A1.274,1.274,0,0,1,14.96,28.424ZM3.938,4.327C2.7,5.677,2.207,7.82,2.466,10.54c.3,2.977,2.745,6.65,7.082,10.619a59.414,59.414,0,0,0,6.068,4.823A56.67,56.67,0,0,0,21.345,21.4c4.158-3.831,6.625-7.443,7.142-10.46.477-2.739.02-5.042-1.333-6.63a5.387,5.387,0,0,0-4-1.945,3.625,3.625,0,0,0-1.174.2,12.6,12.6,0,0,0-5.988,4.9,1.206,1.206,0,0,1-1.014.6A1.158,1.158,0,0,1,13.945,7.5C13.9,7.483,11.7,3.97,8.931,3.037A4.47,4.47,0,0,0,7.46,2.8,4.724,4.724,0,0,0,3.938,4.327Z" fill="red"/>
</svg>
