<svg id="lovers-heart" xmlns="http://www.w3.org/2000/svg" width="30.094" height="27.73" viewBox="0 0 30.094 27.73">
  <g id="그룹_148" data-name="그룹 148" transform="translate(0 0)">
    <path id="패스_192" data-name="패스 192" d="M14.491,44.456a1.233,1.233,0,0,0,.636.192,1.119,1.119,0,0,0,.636-.192c.52-.346,12.74-8.384,14.128-16.557.713-4.231-.6-6.846-1.812-8.288a7.516,7.516,0,0,0-5.647-2.692,5.487,5.487,0,0,0-1.966.346,14.343,14.343,0,0,0-5.994,4.365A12.239,12.239,0,0,0,9.4,17.687a6.713,6.713,0,0,0-2.178-.346A6.915,6.915,0,0,0,2.1,19.572C.961,20.822-.33,23.206.075,27.36.884,35.533,13.932,44.09,14.491,44.456ZM3.814,21.11a4.576,4.576,0,0,1,3.411-1.481,4.348,4.348,0,0,1,1.426.231c2.679.9,4.818,4.308,4.857,4.327a1.122,1.122,0,0,0,1,.538,1.167,1.167,0,0,0,.983-.577,12.209,12.209,0,0,1,5.8-4.75,3.521,3.521,0,0,1,1.137-.192,5.218,5.218,0,0,1,3.874,1.885c1.311,1.538,1.754,3.769,1.291,6.423-.5,2.923-2.891,6.423-6.919,10.134a55.028,55.028,0,0,1-5.551,4.442,57.821,57.821,0,0,1-5.878-4.673c-4.2-3.846-6.572-7.4-6.861-10.288C2.137,24.495,2.619,22.418,3.814,21.11Z" transform="translate(0.001 -16.918)" fill="red"/>
  </g>
</svg>
