<svg xmlns="http://www.w3.org/2000/svg" width="24.343" height="34.244" viewBox="0 0 24.343 34.244">
  <g id="map-point-pointer" transform="translate(0 0)">
    <g id="그룹_63" data-name="그룹 63" transform="translate(0 0)">
      <path id="패스_117" data-name="패스 117" d="M170.992,114.467a5.383,5.383,0,1,0,5.383,5.383A5.383,5.383,0,0,0,170.992,114.467Zm0,8.355a2.973,2.973,0,1,1,2.973-2.973A2.979,2.979,0,0,1,170.992,122.822Z" transform="translate(-158.82 -106.353)" fill="#458cd3"/>
      <path id="패스_118" data-name="패스 118" d="M90.951,4.017A12.058,12.058,0,0,0,81.652,0C73.9,0,69.842,6.307,69.842,12.533c0,8.154,11.147,20.747,11.629,21.29a1.166,1.166,0,0,0,.884.422h.02a1.253,1.253,0,0,0,.884-.4,59.931,59.931,0,0,0,5.423-6.969c3.655-5.463,5.5-10.3,5.5-14.36A12.97,12.97,0,0,0,90.951,4.017ZM82.395,31.151c-2.611-3.133-10.123-12.633-10.123-18.639,0-4.861,2.952-10.1,9.4-10.1a9.889,9.889,0,0,1,10.1,10.1C91.774,19.583,84.885,28.239,82.395,31.151Z" transform="translate(-69.842)" fill="#458cd3"/>
    </g>
  </g>
</svg>
