<svg id="그룹_53" data-name="그룹 53" xmlns="http://www.w3.org/2000/svg" width="26.621" height="26.621" viewBox="0 0 26.621 26.621">
  <path id="패스_107" data-name="패스 107" d="M93.81,1362.94a13.31,13.31,0,1,0,13.31,13.31A13.326,13.326,0,0,0,93.81,1362.94Zm0,24.339a11.029,11.029,0,1,1,11.029-11.029A11.041,11.041,0,0,1,93.81,1387.279Z" transform="translate(-80.5 -1362.94)" fill="#4e91d5"/>
  <path id="패스_108" data-name="패스 108" d="M103.158,1374.8a1.14,1.14,0,0,0-1.6.185L96.3,1381.6l-3.142-3.351a1.14,1.14,0,1,0-1.664,1.559l4.046,4.316a1.139,1.139,0,0,0,.832.361h.047a1.145,1.145,0,0,0,.847-.432l6.072-7.655A1.14,1.14,0,0,0,103.158,1374.8Z" transform="translate(-83.059 -1365.719)" fill="#4e91d5"/>
</svg>
