<svg id="star-shape-favorite" xmlns="http://www.w3.org/2000/svg" width="29.675" height="28.333" viewBox="0 0 29.675 28.333">
  <g id="그룹_14" data-name="그룹 14" transform="translate(0 0)">
    <path id="패스_23" data-name="패스 23" d="M28.739,21.149l-9.33-.787-3.629-8.628a1.027,1.027,0,0,0-.942-.633,1,1,0,0,0-.942.633l-3.629,8.628-9.33.787a1.013,1.013,0,0,0-.89.7,1.055,1.055,0,0,0,.308,1.1l7.07,6.112L5.3,38.166a1.025,1.025,0,0,0,1.524,1.113l8.012-4.845,8.012,4.845a1,1,0,0,0,.531.154,1.079,1.079,0,0,0,.6-.188,1,1,0,0,0,.394-1.061l-2.123-9.108,7.07-6.112a1.055,1.055,0,0,0,.308-1.1A1.007,1.007,0,0,0,28.739,21.149Zm-8.3,6.779a1.024,1.024,0,0,0-.325,1.01l1.712,7.344-6.454-3.9a1,1,0,0,0-.531-.154.961.961,0,0,0-.531.154l-6.454,3.9,1.712-7.344a1.024,1.024,0,0,0-.325-1.01L3.539,23l7.516-.633a1.024,1.024,0,0,0,.856-.616l2.927-6.968,2.927,6.951a.985.985,0,0,0,.856.616l7.516.633Z" transform="translate(-0.001 -11.1)" fill="#40d1ba"/>
  </g>
</svg>
