<svg id="cancel-circle" xmlns="http://www.w3.org/2000/svg" width="26" height="26" viewBox="0 0 26 26">
  <path id="패스_961" data-name="패스 961" d="M13,0A13,13,0,1,0,26,13,13,13,0,0,0,13,0Zm0,23.563A10.563,10.563,0,1,1,23.563,13,10.562,10.562,0,0,1,13,23.563Z" fill="#848484"/>
  <path id="패스_962" data-name="패스 962" d="M18.563,8,14.5,12.063,10.438,8,8,10.438,12.063,14.5,8,18.563,10.438,21,14.5,16.938,18.563,21,21,18.563,16.938,14.5,21,10.438Z" transform="translate(-1.5 -1.5)" fill="#848484"/>
</svg>
