<svg xmlns="http://www.w3.org/2000/svg" width="2000" height="369.14" viewBox="2000 369.14 100">
  <g id="bg-section-06_1_" data-name="bg-section-06 (1)" transform="translate(186.462 -1318.856)">
    <path id="패스_186" data-name="패스 186" d="M0,0H1920V173.389H0Z" transform="translate(-84.236 1514.607)" fill="#50e3c2"/>
    <g id="그룹_105" data-name="그룹 105" transform="translate(-233.004 -17.216)">
      <g id="그룹_104" data-name="그룹 104" transform="translate(1368.898 894.224)">
        <path id="패스_187" data-name="패스 187" d="M114.731,540A114.731,114.731,0,1,1,0,654.731,114.731,114.731,0,0,1,114.731,540Z" transform="translate(252 -43.222)" fill="#00d293" opacity="0.3"/>
        <path id="패스_188" data-name="패스 188" d="M0,27.424c0-.232,0-.462,0-.694l.027-4.9a21.976,21.976,0,0,1,43.951.121c0,.042,0,.083,0,.126l-.027,4.9c0,.147,0,.3,0,.442A75.314,75.314,0,0,0,67.583,82.494a75.455,75.455,0,0,0,56.65,20.876,21.958,21.958,0,1,1,2.388,43.85,119.342,119.342,0,0,1-48.979-7.536A119.891,119.891,0,0,1,0,27.424" transform="translate(539.507 649.86) rotate(-71)" fill="#00d293" fill-rule="evenodd" opacity="0.3"/>
      </g>
      <path id="패스_189" data-name="패스 189" d="M31.812,192.089A113.485,113.485,0,0,1,0,113.025C0,50.6,49.9,0,111.461,0S222.917,50.6,222.917,113.025a113.484,113.484,0,0,1-31.812,79.064,99.413,99.413,0,0,1,17.916,57.152c0,54.64-43.685,98.933-97.561,98.933S13.9,303.88,13.9,249.241a99.442,99.442,0,0,1,17.916-57.152" transform="translate(348.071 1336.072) rotate(60)" fill="#00d293" opacity="0.3"/>
    </g>
  </g>
</svg>
