<svg id="lovers-heart" xmlns="http://www.w3.org/2000/svg" width="24.138" height="22.292" viewBox="0 0 24.138 22.292">
  <g id="그룹_58" data-name="그룹 58" transform="translate(0)">
    <path id="패스_110" data-name="패스 110" d="M11.623,39.056a.987.987,0,0,0,.51.155.9.9,0,0,0,.51-.155c.417-.278,10.218-6.74,11.332-13.31.572-3.4-.479-5.5-1.453-6.663a6.023,6.023,0,0,0-4.53-2.164,4.392,4.392,0,0,0-1.577.278,11.506,11.506,0,0,0-4.808,3.509,9.82,9.82,0,0,0-4.066-3.169,5.374,5.374,0,0,0-1.747-.278,5.541,5.541,0,0,0-4.112,1.793c-.912,1-1.948,2.922-1.623,6.261C.709,31.882,11.175,38.762,11.623,39.056ZM3.059,20.288A3.666,3.666,0,0,1,5.795,19.1a3.48,3.48,0,0,1,1.144.186c2.149.727,3.865,3.463,3.9,3.478a.9.9,0,0,0,.8.433.936.936,0,0,0,.788-.464,9.8,9.8,0,0,1,4.653-3.818,2.818,2.818,0,0,1,.912-.155A4.182,4.182,0,0,1,21.1,20.273a6.141,6.141,0,0,1,1.036,5.163c-.4,2.35-2.319,5.163-5.55,8.147a44.152,44.152,0,0,1-4.452,3.571A46.392,46.392,0,0,1,7.418,33.4c-3.37-3.092-5.272-5.952-5.5-8.271C1.714,23.009,2.1,21.339,3.059,20.288Z" transform="translate(0.001 -16.918)" fill="#848484"/>
  </g>
</svg>
