<svg id="map-point-pointer" xmlns="http://www.w3.org/2000/svg" width="21.675" height="30.492" viewBox="0 0 21.675 30.492">
  <g id="그룹_63" data-name="그룹 63" transform="translate(0)">
    <path id="패스_117" data-name="패스 117" d="M170.4,114.467a4.793,4.793,0,1,0,4.793,4.793A4.793,4.793,0,0,0,170.4,114.467Zm0,7.44a2.647,2.647,0,1,1,2.647-2.647A2.652,2.652,0,0,1,170.4,121.907Z" transform="translate(-159.564 -107.242)" fill="#7e7e7e"/>
    <path id="패스_118" data-name="패스 118" d="M88.638,3.577A10.737,10.737,0,0,0,80.358,0c-6.9,0-10.516,5.615-10.516,11.159,0,7.261,9.925,18.474,10.355,18.957a1.038,1.038,0,0,0,.787.376H81a1.115,1.115,0,0,0,.787-.358,53.362,53.362,0,0,0,4.829-6.206c3.255-4.864,4.9-9.174,4.9-12.787A11.549,11.549,0,0,0,88.638,3.577ZM81.019,27.738c-2.325-2.79-9.013-11.249-9.013-16.6,0-4.328,2.629-9,8.37-9a8.805,8.805,0,0,1,9,9C89.371,17.437,83.237,25.144,81.019,27.738Z" transform="translate(-69.842)" fill="#7e7e7e"/>
  </g>
</svg>
