<svg id="messenger-user-avatar" xmlns="http://www.w3.org/2000/svg" width="32.048" height="41.707" viewBox="0 0 32.048 41.707">
  <g id="그룹_45" data-name="그룹 45">
    <path id="패스_75" data-name="패스 75" d="M48.592,40.018a1.7,1.7,0,0,0,1.69,1.69H78.95a1.7,1.7,0,0,0,1.69-1.69c0-9.35-4.224-17.376-10.166-20.586a10.6,10.6,0,1,0-11.687,0C52.816,22.642,48.592,30.668,48.592,40.018ZM64.616,3.379a7.209,7.209,0,1,1-7.209,7.209A7.223,7.223,0,0,1,64.616,3.379Zm0,17.883c6.59,0,12,7.519,12.588,17.066H52.028C52.619,28.781,58.026,21.262,64.616,21.262Z" transform="translate(-48.592)" fill="#bebebe"/>
  </g>
</svg>
