<svg xmlns="http://www.w3.org/2000/svg" width="26" height="26" viewBox="0 0 26 26">
  <path id="cancel2" d="M16,29A13,13,0,1,1,27.768,10.47,12.614,12.614,0,0,1,29,16,13,13,0,0,1,16,29ZM16,6A10,10,0,1,0,26,16,10,10,0,0,0,16,6Zm4.537,13.535-1.014,1.014a.478.478,0,0,1-.675,0l-2.87-2.87-2.87,2.87a.478.478,0,0,1-.675,0l-1.014-1.014a.478.478,0,0,1,0-.675l2.871-2.869-2.871-2.87a.479.479,0,0,1,0-.676l1.014-1.013a.476.476,0,0,1,.675,0l2.87,2.87,2.87-2.87a.476.476,0,0,1,.675,0l1.014,1.013a.479.479,0,0,1,0,.676l-2.871,2.87,2.871,2.869A.478.478,0,0,1,20.537,19.535Z" transform="translate(-3 -3)" fill="#76706b"/>
</svg>
