<svg xmlns="http://www.w3.org/2000/svg" width="100" height="100" viewBox="0 0 100 100">
  <g id="그룹_435" data-name="그룹 435" transform="translate(-400 -1337)">
    <rect id="사각형_93" data-name="사각형 93" width="100" height="100" rx="8" transform="translate(400 1337)" fill="#f1f1f1"/>
    <path id="ic_add_a_photo_24px" d="M4.667,5.667V1H7.779V5.667h4.667V8.779H7.779v4.667H4.667V8.779H0V5.667ZM9.334,15V10.334H14V5.667h10.89l2.847,3.111h4.932a3.121,3.121,0,0,1,3.112,3.111V30.559a3.121,3.121,0,0,1-3.112,3.111H7.779a3.121,3.121,0,0,1-3.111-3.111V15Zm10.89,14a7.779,7.779,0,1,0-7.779-7.779A7.782,7.782,0,0,0,20.225,29Zm-4.978-7.779a4.978,4.978,0,1,0,4.978-4.978,4.973,4.973,0,0,0-4.978,4.978Z" transform="translate(432 1370)" fill="#9d9d9d"/>
  </g>
</svg>
