<svg id="sharing-files" xmlns="http://www.w3.org/2000/svg" width="26.652" height="30.268" viewBox="0 0 26.652 30.268">
  <g id="그룹_30" data-name="그룹 30" transform="translate(0 0)">
    <path id="패스_49" data-name="패스 49" d="M51.97,8.929c.085,0,.171.017.256.017h0A4.473,4.473,0,1,0,47.773,4.2,4.6,4.6,0,0,0,48,5.893l-10.61,6.328a4.452,4.452,0,1,0-2.9,7.83,4.36,4.36,0,0,0,2.763-.972L47.6,24.708a4.368,4.368,0,0,0,.375,3.139,4.455,4.455,0,0,0,3.957,2.422h0a4.3,4.3,0,0,0,2.047-.529,4.485,4.485,0,0,0,1.91-6.021,4.44,4.44,0,0,0-3.957-2.405,4.286,4.286,0,0,0-2.047.512,4.5,4.5,0,0,0-1.331,1.058L38.545,17.441a4.493,4.493,0,0,0,.409-1.859,4.434,4.434,0,0,0-.341-1.723L49.1,7.633A4.277,4.277,0,0,0,51.97,8.929ZM49.82,4.34a2.4,2.4,0,0,1,2.405-2.269h.136A2.409,2.409,0,1,1,49.82,4.34ZM32.08,15.6A2.405,2.405,0,1,1,34.485,18,2.4,2.4,0,0,1,32.08,15.6ZM50.827,23.65a2.272,2.272,0,0,1,1.109-.273,2.425,2.425,0,0,1,2.149,1.3,2.4,2.4,0,0,1-1.023,3.241,2.272,2.272,0,0,1-1.109.273h0a2.425,2.425,0,0,1-2.149-1.3,2.384,2.384,0,0,1-.154-1.842A2.276,2.276,0,0,1,50.827,23.65Z" transform="translate(-30.033 -0.001)" fill="#40d1ba"/>
  </g>
</svg>
