<svg xmlns="http://www.w3.org/2000/svg" xmlns:xlink="http://www.w3.org/1999/xlink" width="1920" height="1895" viewBox="0 0 1920 1895">
  <defs>
    <clipPath id="clip-body_back">
      <rect width="1920" height="1895"/>
    </clipPath>
  </defs>
  <g id="body_back" clip-path="url(#clip-body_back)">
    <rect width="1920" height="1895" fill="#fff"/>
    <path id="패스_981" data-name="패스 981" d="M60.826.01c34.213.625,62.455,29.5,63.08,64.5s-26.6,62.856-60.816,62.231S.636,97.235.011,62.241,26.613-.615,60.826.01Z" transform="translate(365.77 326.195) rotate(-151)" fill="#e2fef5"/>
    <text id="LOGIN_·_JOIN_" data-name="LOGIN · JOIN " transform="translate(1514.155 65.499)" fill="#fff" font-size="20" font-family="NotoSansKR-Bold, Noto Sans KR" font-weight="700"><tspan x="-65.69" y="23">LOGIN · JOIN </tspan></text>
    <g id="그룹_714" data-name="그룹 714" transform="translate(58.635 65.499)" opacity="0.64">
      <path id="패스_189" data-name="패스 189" d="M27.848,156.171A95.47,95.47,0,0,1,.016,90.91C-.938,39.771,40.054-.925,91.572.016s94.053,43.161,95.007,94.3a88.635,88.635,0,0,1-25.415,64.289,82.858,82.858,0,0,1,15.868,47.1c.835,44.765-35.048,80.385-80.139,79.562s-82.331-37.78-83.166-82.544a77.855,77.855,0,0,1,14.121-46.549" transform="translate(247.059 0) rotate(60)" fill="none" stroke="#9efbdf" stroke-width="10" opacity="0.67"/>
    </g>
    <g id="그룹_718" data-name="그룹 718" transform="translate(1634.579 358.685) rotate(-151)">
      <path id="패스_187" data-name="패스 187" d="M96.485,1.764c53.287.974,97.274,45.948,98.248,100.452s-41.434,97.9-94.721,96.925S2.738,153.193,1.764,98.689,43.2.79,96.485,1.764Z" transform="translate(0 0)" fill="#9efbdf" opacity="0.3"/>
      <path id="패스_188" data-name="패스 188" d="M-.494,23.378c0-.2.009-.394.014-.592l.111-4.174A19.668,19.668,0,0,1,18.779-.4a17.755,17.755,0,0,1,18.15,18.322c0,.036,0,.071,0,.107L36.815,22.2c0,.125-.006.252-.009.377a61.568,61.568,0,0,0,66.764,63.3,17.753,17.753,0,0,1,19.262,17.256,19.673,19.673,0,0,1-18.026,20.081,99.079,99.079,0,0,1-41.432-5.542A96.438,96.438,0,0,1,7.065,63.964,99.462,99.462,0,0,1-.494,23.378" transform="translate(158.876 -20.828) rotate(-37)" fill="#9efbdf" fill-rule="evenodd" opacity="0.3"/>
      <path id="패스_971" data-name="패스 971" d="M80.854,1.478c44.654.816,81.515,38.5,82.332,84.178S128.464,167.7,83.809,166.879,2.294,128.375,1.478,82.7,36.2.662,80.854,1.478Z" transform="translate(15.917 16.273)" fill="#fff" opacity="0.3"/>
      <path id="패스_980" data-name="패스 980" d="M80.854,1.478c44.654.816,81.515,38.5,82.332,84.178S128.464,167.7,83.809,166.879,2.294,128.375,1.478,82.7,36.2.662,80.854,1.478Z" transform="translate(15.916 16.273)" fill="#fff" opacity="0.3"/>
    </g>
    <path id="패스_974" data-name="패스 974" d="M168.907.008c94.177.9,171.25,80.952,172.147,178.807s-74.722,176.455-168.9,175.558S.9,273.421.008,175.566,74.73-.889,168.907.008Z" transform="translate(1761.693 1153.948) rotate(-167)" fill="none" stroke="#9efbdf" stroke-width="35" opacity="0.3"/>
    <path id="패스_975" data-name="패스 975" d="M135.79.023C212.167,1.419,275.215,65.881,276.611,144S217.223,284.325,140.845,282.929,1.419,217.07.023,138.948,59.412-1.373,135.79.023Z" transform="translate(1687.778 1133.734) rotate(-151)" fill="none" stroke="#9efbdf" stroke-width="15" opacity="0.3"/>
    <path id="패스_976" data-name="패스 976" d="M25.313,142.617A85.212,85.212,0,0,1,.006,83.333C-.559,36.756,37.559-.551,85.144.006s86.615,38.768,87.18,85.345a81.187,81.187,0,0,1-23.875,58.708,73.925,73.925,0,0,1,14.367,42.808c.495,40.771-32.873,73.426-74.521,72.938s-75.82-33.934-76.314-74.7a70.988,70.988,0,0,1,13.332-42.483" transform="translate(1378.447 1127.81) rotate(-107)" fill="#9efbdf" opacity="0.18"/>
    <path id="패스_977" data-name="패스 977" d="M119.049.005c66.378.632,120.7,57.056,121.332,126.026S187.716,250.4,121.338,249.768.638,192.712.006,123.742,52.671-.627,119.049.005Z" transform="translate(364.265 1437.15) rotate(-167)" fill="none" stroke="#9efbdf" stroke-width="20" opacity="0.3"/>
    <path id="패스_978" data-name="패스 978" d="M95.707.016c53.832.984,98.27,46.418,99.254,101.48S153.1,200.4,99.27,199.413,1,153,.017,97.933,41.875-.968,95.707.016Z" transform="translate(312.169 1422.902) rotate(-151)" fill="#9efbdf" opacity="0.3"/>
    <path id="패스_979" data-name="패스 979" d="M17.841,100.519A60.059,60.059,0,0,1,0,58.735C-.394,25.907,26.472-.388,60.011,0s61.048,27.324,61.446,60.153a57.222,57.222,0,0,1-16.828,41.378,52.1,52.1,0,0,1,10.126,30.172c.349,28.736-23.17,51.752-52.524,51.408S8.793,159.2,8.444,130.462a50.034,50.034,0,0,1,9.4-29.943" transform="translate(94.146 1418.726) rotate(-107)" fill="#9efbdf" opacity="0.18"/>
    <path id="패스_982" data-name="패스 982" d="M37.978.006c21.362.39,39,18.42,39.386,40.269S60.754,79.521,39.392,79.131.4,60.711.007,38.862,16.617-.384,37.978.006Z" transform="translate(130.454 230.664) rotate(-151)" fill="#e2fef5"/>
  </g>
</svg>
